<svg width="24" height="24" viewBox="0 0 24 24" fill="none" xmlns="http://www.w3.org/2000/svg">
<g clip-path="url(#clip0_24_29)">
<path d="M0 1.875C0 2.17337 0.118526 2.45952 0.329505 2.6705C0.540483 2.88147 0.826631 3 1.125 3H15.375C15.6734 3 15.9595 2.88147 16.1705 2.6705C16.3815 2.45952 16.5 2.17337 16.5 1.875C16.5 1.57663 16.3815 1.29048 16.1705 1.0795C15.9595 0.868526 15.6734 0.75 15.375 0.75H1.125C0.826631 0.75 0.540483 0.868526 0.329505 1.0795C0.118526 1.29048 0 1.57663 0 1.875ZM22.875 10.5H1.125C0.826631 10.5 0.540483 10.6185 0.329505 10.8295C0.118526 11.0405 0 11.3266 0 11.625C0 11.9234 0.118526 12.2095 0.329505 12.4205C0.540483 12.6315 0.826631 12.75 1.125 12.75H22.875C23.1734 12.75 23.4595 12.6315 23.6705 12.4205C23.8815 12.2095 24 11.9234 24 11.625C24 11.3266 23.8815 11.0405 23.6705 10.8295C23.4595 10.6185 23.1734 10.5 22.875 10.5ZM22.875 21H8.625C8.32663 21 8.04048 21.1185 7.8295 21.3295C7.61853 21.5405 7.5 21.8266 7.5 22.125C7.5 22.4234 7.61853 22.7095 7.8295 22.9205C8.04048 23.1315 8.32663 23.25 8.625 23.25H22.875C23.1734 23.25 23.4595 23.1315 23.6705 22.9205C23.8815 22.7095 24 22.4234 24 22.125C24 21.8266 23.8815 21.5405 23.6705 21.3295C23.4595 21.1185 23.1734 21 22.875 21Z" fill="black"/>
</g>
<defs>
<clipPath id="clip0_24_29">
<rect width="24" height="24" fill="white"/>
</clipPath>
</defs>
</svg>
