<svg width="16" height="16" viewBox="0 0 16 16" fill="none" xmlns="http://www.w3.org/2000/svg">
<path d="M8.75 0.000704617C12.7531 0.000704617 16 3.24758 16 7.2507C16 7.66633 15.6656 8.0007 15.25 8.0007C14.8344 8.0007 14.5 7.66633 14.5 7.2507C14.5 4.0757 11.925 1.5007 8.75 1.5007C8.33438 1.5007 8 1.16633 8 0.750705C8 0.33508 8.33438 0.000704617 8.75 0.000704617ZM9 6.0007C9.26522 6.0007 9.51957 6.10606 9.70711 6.2936C9.89464 6.48113 10 6.73549 10 7.0007C10 7.26592 9.89464 7.52028 9.70711 7.70781C9.51957 7.89535 9.26522 8.0007 9 8.0007C8.73478 8.0007 8.48043 7.89535 8.29289 7.70781C8.10536 7.52028 8 7.26592 8 7.0007C8 6.73549 8.10536 6.48113 8.29289 6.2936C8.48043 6.10606 8.73478 6.0007 9 6.0007ZM8 3.7507C8 3.33508 8.33438 3.0007 8.75 3.0007C11.0969 3.0007 13 4.90383 13 7.2507C13 7.66633 12.6656 8.0007 12.25 8.0007C11.8344 8.0007 11.5 7.66633 11.5 7.2507C11.5 5.73195 10.2688 4.5007 8.75 4.5007C8.33438 4.5007 8 4.16633 8 3.7507ZM3.67188 0.0444546C4.27812 -0.12117 4.9125 0.188205 5.15312 0.769455L6.40312 3.76945C6.61562 4.27883 6.46875 4.86945 6.04063 5.21633L4.5 6.47883C5.54063 8.67883 7.32188 10.4601 9.52188 11.5007L10.7812 9.96008C11.1313 9.53195 11.7188 9.38508 12.2281 9.59758L15.2281 10.8476C15.8094 11.0882 16.1187 11.7226 15.9531 12.3288L15.2031 15.0788C15.0562 15.6226 14.5625 16.0007 14 16.0007C6.26875 16.0007 0 9.73195 0 2.0007C0 1.4382 0.378125 0.944455 0.921875 0.794455L3.67188 0.0444546Z" fill="#F7C200"/>
</svg>
